<?xml version="1.0" standalone="no"?>
<!DOCTYPE svg PUBLIC "-//W3C//DTD SVG 20010904//EN"
 "http://www.w3.org/TR/2001/REC-SVG-20010904/DTD/svg10.dtd">
<svg version="1.0" xmlns="http://www.w3.org/2000/svg"
 width="2001.000000pt" height="2001.000000pt" viewBox="0 0 2001.000000 2001.000000"
 preserveAspectRatio="xMidYMid meet">

<g transform="translate(0.000000,2001.000000) scale(0.100000,-0.100000)"
fill="#000000" stroke="none">
<path d="M17690 14059 c-99 -11 -252 -44 -348 -75 -114 -36 -326 -145 -417
-214 -161 -120 -325 -301 -436 -480 -70 -114 -180 -340 -226 -466 -42 -117
-45 -118 -90 -25 -26 53 -28 63 -28 191 0 116 4 148 27 230 29 101 93 272 128
340 12 23 19 44 17 47 -9 9 -303 -291 -379 -387 -168 -211 -307 -458 -404
-714 l-52 -139 -18 34 c-13 25 -19 63 -22 145 -5 124 10 220 60 388 16 54 27
100 25 102 -2 2 -69 -62 -148 -143 -222 -227 -392 -448 -571 -747 -43 -72 -78
-128 -78 -125 0 2 27 83 61 179 169 485 209 604 200 595 -5 -6 -82 -116 -172
-245 -485 -703 -760 -1147 -1001 -1615 -119 -232 -125 -234 -87 -38 51 265
222 680 483 1171 89 165 94 163 -94 37 -612 -411 -1215 -1010 -1714 -1702 -44
-62 -82 -111 -83 -109 -7 6 68 181 123 286 99 191 204 337 371 518 l86 93 -39
-6 c-710 -121 -1341 -714 -1915 -1797 -52 -98 -97 -178 -101 -178 -4 0 -20 18
-34 40 -50 75 -43 233 12 306 78 102 91 244 42 467 -12 55 -11 62 21 160 98
300 194 496 347 705 21 29 5 29 -52 2 -55 -27 -178 -156 -285 -300 -47 -63
-137 -185 -200 -270 -211 -285 -334 -417 -480 -517 l-71 -48 -122 -6 c-66 -4
-150 -14 -186 -23 -88 -23 -270 -114 -355 -177 -108 -81 -290 -271 -395 -412
-85 -115 -96 -126 -107 -111 -41 56 -44 183 -7 292 52 156 152 291 386 525 99
98 171 176 161 174 -10 -3 -38 -8 -63 -12 -25 -4 -95 -19 -156 -35 -588 -151
-1130 -577 -1631 -1282 -42 -59 -79 -105 -83 -103 -11 7 -30 89 -30 132 0 188
185 487 496 799 l131 132 -51 -15 c-495 -145 -956 -482 -1266 -925 l-52 -76
-107 -37 c-433 -152 -961 -401 -1613 -761 -103 -57 -190 -104 -193 -104 -3 0
27 48 66 106 39 58 69 108 66 110 -9 10 -281 -91 -392 -146 -170 -83 -273
-176 -309 -277 l-13 -38 -94 3 c-555 15 -1497 164 -2273 358 -98 25 -180 43
-182 41 -7 -6 249 -134 392 -196 518 -223 1181 -387 1824 -451 157 -15 152
-14 187 -64 65 -92 196 -166 394 -222 87 -25 102 -33 199 -111 208 -167 443
-314 705 -443 88 -43 174 -84 190 -90 28 -10 27 -9 -10 21 -74 59 -180 176
-218 240 -56 95 -78 178 -75 278 l3 83 65 -84 c36 -45 128 -146 205 -224 200
-201 357 -316 590 -430 157 -76 258 -114 427 -159 l128 -34 0 100 c0 54 2 99
4 99 2 0 59 -29 127 -65 277 -144 532 -199 888 -193 183 3 184 3 199 28 28 44
97 105 143 127 86 40 145 48 342 48 l187 -1 0 39 c0 105 157 151 493 145 152
-3 168 -1 173 15 3 9 20 25 37 35 45 24 196 21 360 -8 71 -12 129 -20 130 -18
19 35 31 48 69 74 92 63 271 90 678 105 l305 12 305 89 c490 144 683 212 880
314 145 74 209 128 282 238 73 107 156 195 218 226 62 32 120 31 205 -4 81
-33 176 -44 228 -27 79 26 137 133 142 262 5 115 56 177 175 210 29 8 126 13
265 14 244 2 306 13 430 78 83 43 191 155 232 239 101 206 348 407 624 508
320 118 747 434 1011 750 78 93 206 276 263 374 24 42 25 48 9 41 -89 -37
-252 -88 -337 -106 -244 -50 -438 7 -553 164 -45 61 -89 136 -82 142 2 2 48
-12 103 -30 138 -46 256 -65 412 -65 322 0 627 118 860 334 88 82 441 465 563
611 616 739 1015 1539 1101 2209 17 133 6 420 -19 521 -41 158 -108 289 -199
386 l-46 49 -111 -1 c-61 -1 -145 -5 -186 -10z m-360 -978 c-5 -11 -79 -122
-163 -248 -877 -1307 -1881 -2396 -3039 -3295 -653 -507 -1422 -985 -2153
-1339 -2210 -1070 -4672 -1448 -7274 -1118 -243 31 -411 56 -418 62 -2 2 8 53
22 113 14 60 27 118 30 129 l4 21 188 -22 c466 -56 898 -83 1438 -91 711 -10
1353 29 2030 123 3167 441 6058 2029 8460 4649 253 276 596 675 795 927 47 59
86 108 88 108 1 0 -2 -9 -8 -19z"/>
</g>
</svg>
